<?xml version="1.0" encoding="UTF-8"?>
<svg id="Lager_1" data-name="Lager 1" xmlns="http://www.w3.org/2000/svg" viewBox="0 0 816.64 150.69">
  <defs>
    <style>
      .cls-1 {
        fill: #d9d8d6;
      }

      .cls-2 {
        fill: #c8c8c8;
      }
    </style>
  </defs>
  <path class="cls-2" d="M185.42,129.1c28.78,28.78,75.45,28.78,104.23,0L185.42,24.88c-28.78,28.78-28.78,75.45,0,104.23Z"/>
  <path class="cls-2" d="M334.62,76.99c0,18.86,7.2,37.72,21.59,52.11,28.78,28.78,75.45,28.78,104.23,0l-52.11-52.11h-73.7Z"/>
  <polygon class="cls-2" points="0 147.86 47.24 147.86 47.24 100.61 94.49 100.61 0 6.12 0 147.86"/>
  <path class="cls-2" d="M781.21,76.99h-86.25v70.87h86.25c19.57,0,35.43-15.86,35.43-35.43s-15.86-35.43-35.43-35.43Z"/>
  <polygon class="cls-2" points="578.96 147.86 578.96 0 493.6 147.86 578.96 147.86"/>
  <path class="cls-1" d="M185.42,24.87s0,0,0,0l104.23,104.23s0,0,0,0c28.78-28.78,28.78-75.45,0-104.23-28.78-28.78-75.45-28.78-104.23,0Z"/>
  <path class="cls-1" d="M408.32,3.29v73.7h0l52.11,52.11h0c28.78-28.78,28.78-75.45,0-104.23-14.39-14.39-33.25-21.59-52.11-21.59Z"/>
  <polygon class="cls-1" points="94.49 100.61 94.49 53.37 141.73 53.37 141.73 6.12 0 6.12 94.49 100.61"/>
  <path class="cls-1" d="M781.21,6.12h-86.25v70.87h86.25c19.57,0,35.43-15.86,35.43-35.43s-15.86-35.43-35.43-35.43Z"/>
  <polygon class="cls-1" points="578.96 147.86 664.33 147.86 578.96 0 578.96 147.86"/>
</svg>